<svg width="64" height="64" viewBox="0 0 64 64" fill="none" xmlns="http://www.w3.org/2000/svg">
<g clip-path="url(#clip0_2289_3438)">
<path d="M32 64C5.11485 53.2773 0.0891705 44.6428 0.00118709 1.18833C-0.000118083 0.543714 0.522565 -1.54972e-06 1.16718 -1.54972e-06H62.8328C63.4774 -1.54972e-06 64.0002 0.543764 63.9984 1.18838C63.8778 44.884 57.0078 53.5463 32 64Z" fill="#093655"/>
<path d="M31.9995 58.6943C9.45042 49.701 5.33492 42.4687 5.30571 5.70435C5.30554 5.48948 5.47974 5.30653 5.69461 5.30653H58.3043C58.5192 5.30653 58.6934 5.48949 58.6931 5.70437C58.6529 42.67 52.9733 49.9269 31.9995 58.6943Z" fill="#D0D0D0"/>
<path d="M7.23047 33.7487C22.4928 13.3745 46.8307 11.0677 58.586 11.8362C58.586 51.3972 43.4846 53.4634 31.9036 58.7601C11.7605 52.0931 7.39201 39.1919 7.23047 33.7487Z" fill="#1CC5A7"/>
<path d="M15.042 49.1275C22.5384 20.2008 47.1712 11.7148 58.5863 11.0425V14.0546C29.7815 18.3133 25.1544 44.1703 26.4415 56.5664C21.0996 54.9161 18.7048 53.0001 15.042 49.1275Z" fill="#D0D0D0"/>
</g>
<defs>
<clipPath id="clip0_2289_3438">
<rect width="64" height="64" fill="white"/>
</clipPath>
</defs>
</svg>
